<svg width="25" height="25" viewBox="0 0 25 25" fill="none" xmlns="http://www.w3.org/2000/svg">
<path d="M9.22974 21.7395C9.5404 21.7395 9.79224 21.4877 9.79224 21.177C9.79224 20.8663 9.5404 20.6145 9.22974 20.6145C8.91908 20.6145 8.66724 20.8663 8.66724 21.177C8.66724 21.4877 8.91908 21.7395 9.22974 21.7395Z" fill="#22262A" stroke="#22262A" stroke-width="2" stroke-miterlimit="10" stroke-linecap="round" stroke-linejoin="round"/>
<path d="M17.1047 21.7395C17.4154 21.7395 17.6672 21.4877 17.6672 21.177C17.6672 20.8663 17.4154 20.6145 17.1047 20.6145C16.7941 20.6145 16.5422 20.8663 16.5422 21.177C16.5422 21.4877 16.7941 21.7395 17.1047 21.7395Z" fill="#22262A" stroke="#22262A" stroke-width="2" stroke-miterlimit="10" stroke-linecap="round" stroke-linejoin="round"/>
<path d="M3.04224 3.7395H5.29224L7.54224 17.2395H18.7922L21.0422 7.1145H6.41724" stroke="#22262A" stroke-width="2" stroke-linecap="round" stroke-linejoin="round"/>
</svg>
