<svg width="39" height="26" viewBox="0 0 39 26" fill="none" xmlns="http://www.w3.org/2000/svg">
<path d="M1.66734 0H36.6673C36.8907 0.00429082 37.111 0.052605 37.3157 0.14209C37.5203 0.231575 37.7054 0.360445 37.8602 0.521484C38.015 0.682523 38.1365 0.87252 38.2179 1.08057C38.2992 1.28861 38.3388 1.51055 38.3343 1.73389V23.4082C38.3388 23.6315 38.2992 23.8535 38.2179 24.0615C38.1365 24.2696 38.015 24.4596 37.8602 24.6206C37.7054 24.7816 37.5203 24.9105 37.3157 25C37.111 25.0895 36.8907 25.1378 36.6673 25.1421H1.66734C1.44399 25.1378 1.2237 25.0895 1.01902 25C0.814343 24.9105 0.629285 24.7816 0.474468 24.6206C0.319651 24.4596 0.198034 24.2696 0.11668 24.0615C0.0353258 23.8535 -0.00416209 23.6315 0.000346857 23.4082V1.73389C-0.00416209 1.51055 0.0353258 1.28861 0.11668 1.08057C0.198034 0.87252 0.319651 0.682523 0.474468 0.521484C0.629285 0.360445 0.814343 0.231575 1.01902 0.14209C1.2237 0.052605 1.44399 0.00429082 1.66734 0Z" fill="url(#paint0_linear_616_2)"/>
<path d="M29.9724 17.2261L29.7205 15.9312H26.9865L26.5375 17.2261H24.2954L27.5024 9.16113C27.577 8.96114 27.7137 8.79011 27.8923 8.67334C28.071 8.55657 28.2824 8.50025 28.4955 8.51221H30.2245L31.9464 17.2271L29.9724 17.2261ZM28.7365 10.8818L27.6064 14.1431H29.3724L28.7365 10.8818ZM21.4495 10.9961C21.4495 11.9481 24.4495 12.1518 24.4495 14.3408C24.4495 16.4488 22.2345 17.2241 20.7675 17.2241C19.9337 17.2379 19.1063 17.0756 18.3395 16.748L18.6594 14.8579C19.5394 15.5779 22.2085 15.7831 22.2085 14.6401C22.2085 13.4971 19.2335 13.4699 19.2335 11.2939C19.2335 8.98195 21.7675 8.50586 22.8335 8.50586C23.4938 8.52279 24.1469 8.64692 24.7675 8.87305L24.4604 10.6821C23.5424 10.1701 21.4475 10.048 21.4475 11L21.4495 10.9961ZM14.8655 17.2261L16.2095 8.51074H18.3605L17.0165 17.2261H14.8655ZM9.7085 17.2261L7.84241 9.66406C8.17206 9.86996 8.48657 10.0992 8.78345 10.3501C9.68046 11.1177 10.363 12.1046 10.7644 13.2148L11.0074 14.5059L13.0585 8.51221H15.3734L11.9514 17.2271L9.7085 17.2261ZM7.71448 9.58008C7.64781 9.53874 7.58107 9.49894 7.5144 9.46094C7.5784 9.50494 7.6444 9.54296 7.7124 9.58496L7.71448 9.58008ZM7.20044 9.29004C7.14244 9.26004 7.08251 9.2282 7.02551 9.2002C7.08051 9.2332 7.13949 9.26492 7.19849 9.29492L7.20044 9.29004Z" fill="#494CA3"/>
<path d="M10.762 13.219L10.038 9.30102C9.99991 9.06487 9.87315 8.85217 9.68359 8.70629C9.49404 8.56041 9.25596 8.49267 9.01794 8.51635H5.62793L5.58789 8.66332C6.76495 8.98071 7.85577 9.55818 8.77991 10.3533C9.67743 11.121 10.3604 12.1082 10.762 13.219Z" fill="#FFC000"/>
<defs>
<linearGradient id="paint0_linear_616_2" x1="19.1673" y1="25.1421" x2="19.1673" y2="0" gradientUnits="userSpaceOnUse">
<stop stop-color="#E59703"/>
<stop offset="0.231" stop-color="#E59703"/>
<stop offset="0.234" stop-color="white"/>
<stop offset="0.761" stop-color="white"/>
<stop offset="0.766" stop-color="#5457BB"/>
<stop offset="1" stop-color="#5457BB"/>
</linearGradient>
</defs>
</svg>
