<svg width="39" height="26" viewBox="0 0 39 26" fill="none" xmlns="http://www.w3.org/2000/svg">
<path d="M2.46107 0.849365H37.1961C37.6448 0.86142 38.0706 1.05038 38.3805 1.37524C38.6904 1.70011 38.8591 2.13439 38.85 2.58325V24.2561C38.8591 24.705 38.6904 25.1392 38.3805 25.4641C38.0706 25.789 37.6448 25.9779 37.1961 25.99H2.46107C2.01227 25.9779 1.58637 25.789 1.2765 25.4641C0.966619 25.1392 0.797873 24.705 0.807014 24.2561V2.58423C0.797605 2.13519 0.966347 1.70081 1.27625 1.37573C1.58616 1.05065 2.0121 0.86142 2.46107 0.849365Z" fill="#F1F1F1"/>
<path d="M1.21888 25.3992C0.953263 25.0784 0.808598 24.6745 0.809944 24.2581V2.58423C0.800535 2.13519 0.969154 1.70081 1.27906 1.37573C1.58897 1.05065 2.0149 0.86142 2.46387 0.849365H37.1979C37.6196 0.850311 38.0239 1.01683 38.3239 1.31323L1.22388 25.3992H1.21888Z" fill="white" fill-opacity="0.73"/>
<path d="M15.4548 18.8143L16.7548 16.4642L16.0308 10.8201H17.8018L18.0878 14.1605L19.8208 10.8201H21.6488L17.4398 18.8143H15.4548ZM9.90173 14.5985C10.1747 13.2245 11.5017 12.7884 13.4637 12.7884C13.5807 12.1774 13.1918 12.0242 12.5298 12.0472C11.9461 12.0755 11.3723 12.2086 10.8358 12.4403L10.9907 11.0672C11.6349 10.8671 12.302 10.7497 12.9758 10.7181C14.2018 10.6961 15.5648 11.0875 15.2538 12.6805L14.4948 16.4305H12.7238L12.8397 15.8621C12.6342 16.0743 12.3884 16.2436 12.1168 16.3597C11.8452 16.4758 11.5532 16.5365 11.2578 16.5384C10.4188 16.5344 9.67183 15.9881 9.90283 14.5941L9.90173 14.5985ZM11.7128 14.5111C11.657 14.59 11.6254 14.6835 11.6216 14.7801C11.6178 14.8767 11.6421 14.9724 11.6915 15.0555C11.7409 15.1385 11.8132 15.2056 11.8999 15.2484C11.9866 15.2911 12.0838 15.3075 12.1798 15.2962C12.3989 15.306 12.6141 15.2363 12.7859 15.0999C12.9577 14.9636 13.0745 14.7701 13.1147 14.5545C13.1379 14.386 13.1713 14.219 13.2147 14.0545H12.7667C12.5672 14.036 12.3662 14.0677 12.1821 14.1468C11.998 14.2259 11.8367 14.3496 11.7128 14.5072V14.5111ZM3.80176 16.4305L5.26575 9.25813H8.57275C8.86755 9.25552 9.15871 9.32374 9.42175 9.45686C9.6848 9.58998 9.91211 9.78418 10.0846 10.0233C10.2571 10.2624 10.3697 10.5393 10.4131 10.8309C10.4564 11.1225 10.4292 11.4201 10.3337 11.699C10.2386 12.3549 9.9098 12.9543 9.40784 13.387C8.90587 13.8197 8.26452 14.057 7.60181 14.0545H6.21875L5.74377 16.4305H3.80176ZM6.49475 12.6805H7.40479C7.67098 12.6593 7.92303 12.5518 8.12305 12.3748C8.32306 12.1979 8.46023 11.9607 8.51379 11.699C8.55577 11.5914 8.57117 11.4755 8.55872 11.3607C8.54626 11.2458 8.50633 11.1355 8.44226 11.0394C8.37819 10.9432 8.29189 10.8641 8.19067 10.8084C8.08946 10.7527 7.97623 10.7218 7.86072 10.7191H6.91077L6.49475 12.6805Z" fill="#3284AE"/>
<path d="M27.1195 14.594C27.3955 13.22 28.7365 12.7854 30.7255 12.7854C30.8635 12.1734 30.4696 12.0222 29.7996 12.0442C29.2034 12.0748 28.6169 12.2075 28.0656 12.4363L28.2235 11.0632C28.8833 10.8656 29.5646 10.7486 30.2526 10.7151C31.4936 10.6931 32.8525 11.084 32.5375 12.676L31.7695 16.425H29.9965L30.1145 15.8591C29.6849 16.2883 29.1037 16.5314 28.4965 16.5354C27.6385 16.5344 26.8825 15.989 27.1195 14.594ZM28.9525 14.5071C28.8986 14.5887 28.8693 14.6842 28.8682 14.782C28.867 14.8798 28.8942 14.9755 28.9462 15.0583C28.9982 15.1412 29.0728 15.2073 29.1614 15.2488C29.2499 15.2902 29.3487 15.3054 29.4456 15.2922C29.6634 15.302 29.8772 15.232 30.0475 15.0959C30.2178 14.9598 30.3329 14.7666 30.3715 14.552C30.4105 14.377 30.4306 14.224 30.4716 14.052H30.0385C29.8335 14.0313 29.6267 14.0621 29.4365 14.1414C29.2464 14.2206 29.079 14.3459 28.9495 14.5061L28.9525 14.5071ZM32.5885 16.425L34.0546 9.2312H35.8745L34.3895 16.425H32.5885ZM21.0195 16.425L22.4816 9.25415H25.7815C26.0755 9.25336 26.3654 9.32264 26.6272 9.4563C26.889 9.58996 27.1152 9.78415 27.287 10.0227C27.4588 10.2613 27.5711 10.5372 27.6149 10.8279C27.6586 11.1186 27.6324 11.4156 27.5385 11.6941C27.4432 12.3523 27.1125 12.9535 26.6078 13.3865C26.1031 13.8195 25.4585 14.055 24.7935 14.0491H23.4305L22.9365 16.4241L21.0195 16.425ZM23.7065 12.676H24.5945C24.8628 12.6554 25.1174 12.549 25.3204 12.3723C25.5234 12.1956 25.6641 11.958 25.7216 11.6951C25.7614 11.586 25.7745 11.469 25.76 11.3538C25.7455 11.2385 25.7037 11.1283 25.6381 11.0325C25.5724 10.9366 25.4849 10.8582 25.3827 10.803C25.2805 10.7478 25.1667 10.7174 25.0505 10.7151H24.1025L23.7065 12.676Z" fill="#3CA9C7"/>
</svg>
