<svg width="39" height="26" viewBox="0 0 39 26" fill="none" xmlns="http://www.w3.org/2000/svg">
<path d="M1.66636 0H36.6484C36.8717 0.00442054 37.0918 0.0530355 37.2964 0.142578C37.5009 0.232121 37.6858 0.360947 37.8406 0.521973C37.9953 0.682999 38.1168 0.873073 38.1981 1.08105C38.2794 1.28904 38.3188 1.51112 38.3143 1.73438V23.4102C38.3232 23.8609 38.1526 24.2966 37.8402 24.6216C37.5278 24.9466 37.0991 25.1341 36.6484 25.1431H1.66636C1.21564 25.1341 0.786894 24.9466 0.474468 24.6216C0.162042 24.2966 -0.00849293 23.8609 0.000346514 23.4102V1.73438C-0.00416333 1.51112 0.0353878 1.28904 0.11668 1.08105C0.197971 0.873073 0.31939 0.682999 0.474101 0.521973C0.628812 0.360947 0.813726 0.232121 1.01829 0.142578C1.22286 0.0530355 1.4431 0.00442054 1.66636 0Z" fill="#353A40"/>
<path d="M22.6891 16.5643C22.4247 16.4299 22.2073 16.2182 22.0652 15.9579C21.8947 15.6392 21.8119 15.2814 21.8252 14.9203C21.8105 14.6742 21.8448 14.4275 21.9261 14.1947C22.0075 13.9619 22.1344 13.7477 22.2992 13.5643C22.4744 13.3974 22.682 13.2682 22.9093 13.1849C23.1366 13.1017 23.3785 13.0658 23.6201 13.08C23.8636 13.0643 24.1077 13.0985 24.3374 13.1806C24.5671 13.2626 24.7777 13.3907 24.9562 13.557C25.1195 13.737 25.245 13.9479 25.3256 14.1771C25.4061 14.4064 25.44 14.6494 25.4252 14.892C25.44 15.2436 25.3714 15.5938 25.2251 15.9139C25.0929 16.1745 24.8871 16.3906 24.6332 16.535C24.3358 16.6923 24.0023 16.769 23.6661 16.7572C23.3299 16.7693 22.9954 16.7034 22.6891 16.5643ZM23.0951 14.1473C22.9662 14.3857 22.8987 14.6523 22.8987 14.9232C22.8987 15.1942 22.9662 15.4608 23.0951 15.6991C23.1631 15.7729 23.2457 15.8317 23.3376 15.872C23.4296 15.9123 23.5288 15.9335 23.6292 15.9335C23.7295 15.9335 23.8287 15.9123 23.9207 15.872C24.0126 15.8317 24.0951 15.7729 24.1631 15.6991C24.3147 15.4518 24.3814 15.1616 24.3531 14.8729C24.3747 14.6124 24.3039 14.3527 24.1532 14.139C24.0871 14.0625 24.0045 14.0023 23.9116 13.9623C23.8188 13.9223 23.7182 13.9036 23.6172 13.9081C23.5177 13.9053 23.4189 13.9252 23.3284 13.9667C23.2379 14.0081 23.158 14.0702 23.0951 14.1473ZM13.1831 16.7211C13.0088 16.7039 12.8392 16.6544 12.6831 16.5751C12.5415 16.4978 12.4166 16.3934 12.3152 16.268C12.2114 16.1489 12.1334 16.01 12.0862 15.8593C12.0248 15.665 11.9912 15.4629 11.9862 15.2592V13.141H13.0571V15.309C13.0523 15.3914 13.0639 15.4742 13.0912 15.5521C13.1185 15.6301 13.161 15.7016 13.2162 15.7631C13.3375 15.8673 13.4921 15.9247 13.6521 15.9247C13.8121 15.9247 13.9668 15.8673 14.0881 15.7631C14.1433 15.7011 14.1857 15.6286 14.2128 15.5502C14.2399 15.4718 14.2512 15.3889 14.2461 15.306V13.1381H15.3171V15.2562C15.3177 15.4604 15.2839 15.6634 15.2172 15.8563C15.1555 16.04 15.0529 16.2069 14.9171 16.3451C14.7974 16.4757 14.6503 16.578 14.4862 16.6449C14.245 16.7289 13.9905 16.769 13.7351 16.7631C13.5508 16.7594 13.3669 16.7451 13.1842 16.7201L13.1831 16.7211ZM28.3221 16.6972L27.0221 14.745V16.6972H26.0121V13.142H27.0121L28.3212 15.1083V13.142H29.3331V16.6972H28.3221ZM18.3441 16.6972L17.0442 14.745V16.6972H16.0342V13.142H17.0342L18.3422 15.1083V13.142H19.3541V16.6972H18.3441ZM20.1141 16.6879V13.139H21.1941V16.6879H20.1141ZM11.9092 11.7069C11.6777 11.467 11.5402 11.1521 11.5221 10.8192L12.5442 10.7543C12.5549 10.893 12.6009 11.0263 12.6781 11.142C12.7338 11.2136 12.806 11.2707 12.8885 11.3085C12.9711 11.3463 13.0615 11.3639 13.1521 11.3593C13.2801 11.3678 13.4068 11.3279 13.5072 11.2479C13.5448 11.2182 13.5752 11.1806 13.5963 11.1376C13.6174 11.0946 13.6287 11.0473 13.6293 10.9994C13.6298 10.9515 13.6197 10.9042 13.5996 10.8607C13.5795 10.8172 13.55 10.7786 13.5132 10.7479C13.347 10.6402 13.1592 10.5699 12.9631 10.5419C12.5977 10.4807 12.2524 10.3329 11.9562 10.1102C11.8585 10.0252 11.7809 9.9193 11.729 9.80067C11.6771 9.68204 11.6523 9.55362 11.6561 9.4242C11.6566 9.24049 11.7105 9.06079 11.8112 8.90711C11.9251 8.73569 12.0878 8.60249 12.2782 8.5243C12.5507 8.41995 12.8417 8.37248 13.1332 8.38514C13.4901 8.36133 13.8455 8.45008 14.1492 8.63905C14.2717 8.73599 14.3721 8.85815 14.4438 8.99696C14.5156 9.13576 14.557 9.28819 14.5652 9.44422L13.5531 9.50526C13.5399 9.37238 13.4796 9.24848 13.3832 9.15614C13.2811 9.0782 13.1543 9.03964 13.0261 9.04725C12.9255 9.03992 12.8255 9.06868 12.7441 9.1283C12.7142 9.15226 12.69 9.18252 12.6736 9.21717C12.6571 9.25182 12.6488 9.28965 12.6492 9.32801C12.65 9.35796 12.6575 9.38729 12.6711 9.41395C12.6848 9.4406 12.7043 9.46419 12.7281 9.48231C12.8374 9.55185 12.9606 9.59613 13.0891 9.61219C13.4367 9.67655 13.7754 9.78192 14.0981 9.92616C14.2801 10.0134 14.4337 10.1503 14.5411 10.3212C14.634 10.4804 14.6818 10.6618 14.6792 10.8461C14.6804 11.07 14.6161 11.2892 14.4941 11.4769C14.3687 11.6707 14.1889 11.8231 13.9772 11.9149C13.7118 12.022 13.4271 12.0732 13.1411 12.0643C12.6995 12.1105 12.2573 11.9816 11.9092 11.7059V11.7069ZM28.3231 11.997L27.0232 10.0443V11.997H26.0132V8.44227H27.0132L28.3221 10.4091V8.44227H29.3341V11.997H28.3231ZM24.4481 11.997L23.8741 10.91C23.828 10.807 23.7617 10.7142 23.6792 10.6371C23.6023 10.5821 23.5097 10.553 23.4152 10.5541H23.3202V11.997H22.2411V8.44227H24.0302C24.2868 8.4322 24.5434 8.46145 24.7911 8.52918C24.9651 8.58602 25.1149 8.69956 25.2162 8.85194C25.3274 9.02302 25.3835 9.22418 25.3772 9.42811C25.3817 9.60628 25.3392 9.78273 25.2542 9.93934C25.1717 10.0817 25.0548 10.2007 24.9142 10.286C24.7967 10.3528 24.6694 10.4008 24.5371 10.4281C24.6363 10.4574 24.7307 10.5011 24.8171 10.558C24.8814 10.6136 24.9388 10.6767 24.9882 10.746C25.0452 10.8144 25.0958 10.8883 25.1392 10.9662L25.6592 11.997H24.4481ZM23.3212 9.88123H23.7742C23.8701 9.87431 23.9652 9.8579 24.0581 9.83289C24.1278 9.81857 24.1898 9.77921 24.2322 9.72205C24.2773 9.66256 24.3012 9.58967 24.3002 9.51502C24.3033 9.46566 24.2952 9.41635 24.2767 9.37049C24.2582 9.32463 24.2296 9.28326 24.1931 9.24989C24.0734 9.17635 23.9328 9.14454 23.7931 9.15907H23.3212V9.88123ZM18.7212 11.997V8.44227H21.5991V9.20106H19.7992V9.766H21.4712V10.4921H19.7992V11.1923H21.6542V11.997H18.7212ZM16.0691 11.997V9.3202H14.9741V8.44227H18.2391V9.3202H17.1392V11.997H16.0691ZM8.2041 11.997V8.44227H11.0822V9.20106H9.2821V9.766H10.9531V10.4921H9.27417V11.1923H11.1272V11.997H8.2041ZM6.03711 11.997L5.4281 9.75819L4.82117 11.997H3.76819L2.99512 8.44227H4.01514L4.3822 10.432L4.92017 8.44227H5.93616L6.4751 10.4301L6.84216 8.44227H7.85718L7.09119 11.997H6.03711Z" fill="#ECD345"/>
<path d="M34.1248 16.7593V8.37939H35.3247V16.7593H34.1248ZM31.1348 16.7593V8.37939H32.3347V16.7593H31.1348Z" fill="#ECD345"/>
</svg>
