<svg width="39" height="26" viewBox="0 0 39 26" fill="none" xmlns="http://www.w3.org/2000/svg">
<path d="M1.66539 0H36.6383C37.089 0.00918945 37.5177 0.196793 37.8299 0.521973C38.1422 0.847152 38.3124 1.28316 38.3033 1.73389V23.4082C38.3124 23.8589 38.1422 24.2944 37.8299 24.6196C37.5177 24.9448 37.089 25.1329 36.6383 25.1421H1.66539C1.21466 25.1329 0.785976 24.9448 0.473736 24.6196C0.161497 24.2944 -0.00876236 23.8589 0.000347631 23.4082V1.73389C-0.00876236 1.28316 0.161497 0.847152 0.473736 0.521973C0.785976 0.196793 1.21466 0.00918945 1.66539 0Z" fill="#5870BE"/>
<path d="M16.7559 12.5668C16.7563 10.791 17.2832 9.05527 18.27 7.57897C19.2568 6.10266 20.6593 4.95214 22.2999 4.27282C23.9406 3.59349 25.7458 3.41596 27.4874 3.76256C29.229 4.10916 30.8288 4.96437 32.0844 6.22008C33.3399 7.4758 34.195 9.07561 34.5414 10.8172C34.8878 12.5589 34.7099 14.3642 34.0304 16.0047C33.3509 17.6453 32.2003 19.0474 30.7239 20.034C29.2475 21.0207 27.5116 21.5475 25.7358 21.5477C24.5565 21.5477 23.3886 21.3155 22.2991 20.8641C21.2095 20.4128 20.2195 19.7513 19.3856 18.9173C18.5517 18.0834 17.8903 17.0934 17.4391 16.0038C16.9879 14.9142 16.7557 13.7461 16.7559 12.5668Z" fill="#FFAF38"/>
<path d="M11.976 21.5459C10.445 21.5457 8.93937 21.1541 7.60226 20.4082C6.26516 19.6623 5.14098 18.5868 4.33652 17.2841C3.53205 15.9814 3.07403 14.4949 3.00595 12.9653C2.93788 11.4357 3.26204 9.9139 3.9476 8.54487C4.63316 7.17585 5.65739 6.00524 6.92294 5.14351C8.1885 4.28178 9.6533 3.75772 11.1783 3.62153C12.7033 3.48535 14.2379 3.74133 15.6361 4.36519C17.0343 4.98904 18.2498 5.9601 19.1671 7.18599H17.9671V7.78609H19.58C19.701 7.97709 19.8151 8.17495 19.9211 8.37495H17.367V8.97505H20.2101C20.2981 9.17505 20.3771 9.37515 20.4471 9.57515H16.7671V10.1748H20.6351C21.1213 11.9487 21.0543 13.829 20.4431 15.5639H16.7671V16.164H20.206C20.116 16.371 20.0191 16.5638 19.9211 16.7548H17.367V17.3549H19.5731C19.4401 17.5649 19.3011 17.766 19.1601 17.955H17.9671V18.5551H18.6671C17.8243 19.4955 16.7929 20.2478 15.6401 20.7631C14.4873 21.2785 13.2388 21.545 11.976 21.5459Z" fill="#E63737"/>
<path d="M2.12522 14.2188L2.67192 9.95883L3.52043 10.0677L4.14167 13.2134C4.19861 13.5062 4.23944 13.7251 4.26416 13.8701C4.33248 13.7213 4.43724 13.5034 4.57845 13.2163L5.97878 10.3832L6.73721 10.4805L6.19051 14.7405L5.64712 14.6708L6.10469 11.1053L4.40922 14.5119L3.9007 14.4467L3.13402 10.662L2.66861 14.2886L2.12522 14.2188ZM9.09582 14.7264C8.88096 14.8662 8.6791 14.9585 8.49024 15.0032C8.30331 15.0481 8.10717 15.0574 7.90183 15.031C7.56281 14.9875 7.31282 14.8718 7.15185 14.6837C6.99113 14.4938 6.9273 14.2699 6.96037 14.0123C6.97976 13.8612 7.03131 13.728 7.11503 13.6127C7.20093 13.4957 7.30394 13.4066 7.42406 13.3452C7.54611 13.284 7.67937 13.2431 7.82382 13.2222C7.92997 13.2083 8.08831 13.202 8.29883 13.2034C8.72761 13.2073 9.04624 13.1871 9.25473 13.143C9.26586 13.0715 9.27267 13.0261 9.27516 13.0068C9.30251 12.7937 9.27238 12.6372 9.18476 12.5373C9.06626 12.402 8.87528 12.3174 8.61181 12.2836C8.36578 12.2521 8.17809 12.2723 8.04873 12.3443C7.92156 12.4146 7.81583 12.5556 7.73156 12.7673L7.22908 12.6319C7.30367 12.419 7.40281 12.2525 7.52651 12.1325C7.65046 12.0106 7.81777 11.9267 8.02845 11.8809C8.23937 11.8331 8.47753 11.8263 8.74293 11.8604C9.00639 11.8942 9.21648 11.9526 9.37319 12.0358C9.5299 12.1189 9.64091 12.2129 9.70621 12.3177C9.77177 12.4207 9.81085 12.5458 9.82345 12.6931C9.82945 12.7845 9.81753 12.9464 9.78769 13.1789L9.69819 13.8763C9.63579 14.3625 9.60692 14.6719 9.61157 14.8044C9.61841 14.9353 9.64718 15.064 9.69788 15.1906L9.15158 15.1205C9.11126 15.0051 9.09267 14.8737 9.09582 14.7264ZM9.20215 13.5527C9.00235 13.6058 8.70912 13.6351 8.32246 13.6407C8.10345 13.6441 7.94691 13.6594 7.85282 13.6867C7.75874 13.714 7.68263 13.7623 7.6245 13.8317C7.56662 13.8991 7.53184 13.9783 7.52016 14.0694C7.50226 14.2088 7.53965 14.3318 7.63232 14.4382C7.72694 14.5449 7.87595 14.6112 8.07936 14.6373C8.28083 14.6632 8.46562 14.6426 8.63373 14.5756C8.80208 14.5066 8.93288 14.4003 9.02614 14.2567C9.09748 14.1458 9.14795 13.975 9.17753 13.7445L9.20215 13.5527ZM10.2549 14.3258L10.7826 14.3108C10.785 14.5218 10.845 14.691 10.9626 14.8183C11.0821 14.9459 11.261 15.025 11.4993 15.0556C11.7395 15.0864 11.9239 15.0608 12.0526 14.9789C12.1815 14.895 12.2544 14.7872 12.2713 14.6555C12.2865 14.5373 12.2471 14.4377 12.1531 14.3567C12.0874 14.301 11.9167 14.2191 11.6412 14.1109C11.27 13.9648 11.0143 13.8473 10.8741 13.7584C10.7361 13.6678 10.6363 13.5556 10.5747 13.4217C10.5153 13.286 10.4953 13.1427 10.5147 12.9916C10.5324 12.854 10.5796 12.7311 10.6566 12.6228C10.7356 12.5129 10.8344 12.4261 10.9528 12.3625C11.0419 12.3129 11.1588 12.2767 11.3035 12.2539C11.4504 12.2295 11.6042 12.2276 11.765 12.2482C12.0072 12.2793 12.2148 12.3414 12.388 12.4345C12.5631 12.5278 12.6865 12.6402 12.7582 12.7715C12.8303 12.9008 12.8699 13.0674 12.8773 13.2711L12.3569 13.2752C12.354 13.1134 12.3021 12.9807 12.2012 12.8772C12.1022 12.7739 11.951 12.7092 11.7476 12.6831C11.5074 12.6523 11.3308 12.67 11.218 12.7362C11.1051 12.8025 11.0418 12.8889 11.0282 12.9954C11.0195 13.0632 11.0329 13.127 11.0686 13.1867C11.104 13.2484 11.1649 13.3034 11.2512 13.3519C11.301 13.378 11.4493 13.4423 11.6961 13.5449C12.0534 13.6912 12.3006 13.8056 12.4377 13.8882C12.577 13.9691 12.6806 14.0749 12.7485 14.2057C12.8163 14.3365 12.8389 14.491 12.816 14.6692C12.7936 14.8436 12.7211 15.0017 12.5986 15.1435C12.4782 15.2836 12.3166 15.384 12.1139 15.4446C11.9114 15.5033 11.6891 15.5171 11.447 15.486C11.046 15.4345 10.7506 15.312 10.5608 15.1183C10.373 14.9248 10.271 14.6606 10.2549 14.3258ZM14.5235 15.3344L14.5398 15.8061C14.3886 15.8182 14.2549 15.8168 14.1386 15.8019C13.9488 15.7775 13.8054 15.7286 13.7085 15.6551C13.6116 15.5816 13.548 15.4937 13.5178 15.3914C13.4879 15.2871 13.4931 15.0781 13.5334 14.7643L13.7612 12.9888L13.3776 12.9396L13.4298 12.5327L13.8134 12.582L13.9115 11.8177L14.4719 11.5706L14.3336 12.6487L14.8595 12.7162L14.8073 13.123L14.2814 13.0555L14.0498 14.8601C14.0306 15.0092 14.027 15.1062 14.039 15.1511C14.0529 15.1962 14.0786 15.234 14.116 15.2644C14.1554 15.295 14.2139 15.3153 14.2914 15.3253C14.3495 15.3327 14.4269 15.3358 14.5235 15.3344ZM17.2179 15.1455L17.7498 15.2817C17.6241 15.5866 17.4347 15.8114 17.1818 15.9561C16.9289 16.1009 16.6233 16.1503 16.2649 16.1043C15.8135 16.0464 15.4729 15.8619 15.243 15.5508C15.0154 15.238 14.9337 14.8307 14.9981 14.329C15.0648 13.8098 15.2501 13.424 15.5543 13.1716C15.8584 12.9192 16.2236 12.8204 16.6498 12.8751C17.0624 12.928 17.3814 13.1117 17.6069 13.4262C17.8324 13.7407 17.9125 14.1526 17.8471 14.6621C17.8431 14.6931 17.8362 14.7395 17.8263 14.8012L15.5248 14.5059C15.5007 14.8474 15.5633 15.1193 15.7126 15.3216C15.8619 15.5239 16.0653 15.6415 16.323 15.6746C16.5148 15.6992 16.6849 15.6699 16.8335 15.5865C16.982 15.5032 17.1101 15.3562 17.2179 15.1455ZM15.6091 14.0795L17.3322 14.3007C17.3423 14.0381 17.3014 13.835 17.2096 13.6913C17.0689 13.4684 16.8658 13.3399 16.6004 13.3059C16.3602 13.2751 16.1474 13.3295 15.9621 13.4691C15.7787 13.609 15.6611 13.8125 15.6091 14.0795ZM18.2847 16.2926L18.6807 13.2066L19.1515 13.267L19.0914 13.7349C19.2396 13.5314 19.3686 13.4012 19.4783 13.3444C19.5899 13.2878 19.7067 13.2674 19.8288 13.283C20.0051 13.3057 20.177 13.3848 20.3447 13.5206L20.1023 13.9827C19.9841 13.8908 19.8611 13.8366 19.7333 13.8202C19.619 13.8055 19.5118 13.8272 19.4118 13.8853C19.3121 13.9414 19.235 14.028 19.1806 14.145C19.0986 14.3236 19.0434 14.5232 19.0151 14.7441L18.8077 16.3597L18.2847 16.2926ZM23.5703 15.4527L24.1158 15.6675C23.9382 16.1153 23.6797 16.4415 23.3404 16.6461C23.0032 16.8489 22.6128 16.9219 22.1692 16.865C21.7101 16.8061 21.3481 16.6651 21.0833 16.4421C20.8208 16.2174 20.6367 15.9181 20.531 15.5441C20.4274 15.1705 20.4016 14.7802 20.4538 14.3734C20.5108 13.9298 20.6446 13.5541 20.8555 13.2464C21.0684 12.937 21.3418 12.7171 21.6756 12.5867C22.0116 12.4545 22.3674 12.4126 22.7433 12.4608C23.1695 12.5155 23.5139 12.67 23.7767 12.9243C24.0394 13.1785 24.2027 13.5096 24.2665 13.9175L23.6947 13.9771C23.6357 13.6544 23.5213 13.4103 23.3515 13.2448C23.1818 13.0793 22.9545 12.9782 22.6697 12.9417C22.3423 12.8997 22.0582 12.943 21.8172 13.0715C21.5781 13.2004 21.397 13.3918 21.2739 13.6457C21.1509 13.8977 21.0714 14.1642 21.0354 14.4451C20.9889 14.8074 21.0006 15.1308 21.0704 15.4155C21.1424 15.6984 21.2812 15.921 21.4868 16.0833C21.6924 16.2455 21.925 16.3433 22.1846 16.3766C22.5004 16.4172 22.7794 16.3604 23.0217 16.2064C23.264 16.0524 23.4468 15.8012 23.5703 15.4527ZM26.6356 16.9774C26.4207 17.1172 26.2189 17.2094 26.03 17.2541C25.8431 17.299 25.6469 17.3083 25.4416 17.282C25.1026 17.2385 24.8526 17.1227 24.6916 16.9347C24.5309 16.7447 24.4671 16.5209 24.5001 16.2632C24.5195 16.1121 24.5711 15.9789 24.6548 15.8636C24.7407 15.7467 24.8437 15.6575 24.9638 15.5961C25.0859 15.535 25.2191 15.494 25.3636 15.4732C25.4697 15.4592 25.6281 15.4529 25.8386 15.4544C26.2674 15.4582 26.586 15.438 26.7945 15.3939C26.8056 15.3225 26.8124 15.2771 26.8149 15.2577C26.8423 15.0446 26.8121 14.8881 26.7245 14.7883C26.606 14.653 26.415 14.5684 26.1516 14.5346C25.9055 14.503 25.7178 14.5232 25.5885 14.5952C25.4613 14.6655 25.3556 14.8066 25.2713 15.0183L24.7688 14.8829C24.8434 14.6699 24.9426 14.5035 25.0663 14.3835C25.1902 14.2615 25.3575 14.1777 25.5682 14.1318C25.7791 14.0841 26.0173 14.0772 26.2827 14.1113C26.5461 14.1451 26.7562 14.2036 26.9129 14.2867C27.0696 14.3698 27.1807 14.4638 27.246 14.5687C27.3115 14.6716 27.3506 14.7968 27.3632 14.9441C27.3692 15.0354 27.3573 15.1973 27.3274 15.4298L27.2379 16.1272C27.1755 16.6135 27.1467 16.9229 27.1513 17.0554C27.1582 17.1862 27.1869 17.315 27.2376 17.4416L26.6913 17.3715C26.651 17.256 26.6324 17.1247 26.6356 16.9774ZM26.7419 15.8036C26.5421 15.8568 26.2489 15.8861 25.8622 15.8916C25.6432 15.895 25.4867 15.9103 25.3926 15.9377C25.2985 15.965 25.2224 16.0133 25.1643 16.0826C25.1064 16.15 25.0716 16.2292 25.0599 16.3203C25.042 16.4598 25.0794 16.5827 25.1721 16.6891C25.2667 16.7958 25.4157 16.8622 25.6191 16.8883C25.8206 16.9141 26.0054 16.8935 26.1735 16.8265C26.3418 16.7575 26.4726 16.6513 26.5659 16.5077C26.6372 16.3967 26.6877 16.2259 26.7173 15.9954L26.7419 15.8036ZM27.8798 17.524L28.2759 14.438L28.7466 14.4984L28.6866 14.9662C28.8348 14.7627 28.9637 14.6326 29.0734 14.5758C29.185 14.5192 29.3019 14.4988 29.4239 14.5144C29.6002 14.537 29.7722 14.6162 29.9399 14.7519L29.6974 15.2141C29.5793 15.1221 29.4562 15.068 29.3284 15.0516C29.2141 15.0369 29.1069 15.0586 29.0069 15.1166C28.9072 15.1728 28.8301 15.2593 28.7757 15.3764C28.6937 15.5549 28.6386 15.7546 28.6102 15.9755L28.4029 17.5911L27.8798 17.524ZM31.8696 18.036L31.9195 17.6466C31.6846 17.9276 31.3773 18.0437 30.9976 17.995C30.7515 17.9634 30.5336 17.8665 30.3437 17.7043C30.1558 17.5424 30.0202 17.333 29.937 17.0761C29.8559 16.8176 29.8357 16.5305 29.8762 16.2147C29.9157 15.9067 30.0029 15.6343 30.1376 15.3976C30.2726 15.1589 30.4513 14.986 30.6738 14.8786C30.8963 14.7713 31.1345 14.7339 31.3883 14.7665C31.5742 14.7904 31.7348 14.8513 31.8699 14.9494C32.0052 15.0456 32.1103 15.1624 32.1852 15.3L32.3814 13.7716L32.9015 13.8383L32.3548 18.0983L31.8696 18.036ZM30.4138 16.2837C30.3631 16.6789 30.4084 16.985 30.5499 17.2021C30.6914 17.4191 30.8755 17.5422 31.1022 17.5713C31.3308 17.6006 31.5364 17.5325 31.7191 17.3669C31.904 17.1996 32.0211 16.9242 32.0703 16.5406C32.1245 16.1183 32.0829 15.7979 31.9456 15.5794C31.8082 15.3609 31.6204 15.2364 31.3821 15.2058C31.1496 15.176 30.9428 15.2459 30.7615 15.4156C30.5821 15.5856 30.4662 15.875 30.4138 16.2837Z" fill="white"/>
</svg>
